name rise31.4854peak64.571fall78.6902.mot
datacolumns 19
datarows 30
range 17.97993200000000 18.02826400000000
endheader
time	ground_force1_vx	ground_force1_vy	ground_force1_vz	ground_force1_px	ground_force1_py	ground_force1_pz	ground_force2_vx	ground_force2_vy	ground_force2_vz	ground_force2_px	ground_force2_py	ground_force2_pz	ground_torque1_x	ground_torque1_y	ground_torque1_z	ground_torque2_x	ground_torque2_y	ground_torque2_z	
17.97993200000000	62.41960000000000	775.47537299999999	56.51641700000000	0.31129400000000	0.00000000000000	0.11068500000000	0.00000000000000	0.00000000000000	0.00000000000000	0.00000000000000	0.00000000000000	0.00000000000000	0.00000000000000	20.96714500000000	0.00000000000000	0.00000000000000	0.00000000000000	0.00000000000000	
17.98160200000000	61.54285100000000	777.20852100000002	56.66190800000000	0.31029000000000	0.00000000000000	0.11066500000000	0.00000000000000	0.00000000000000	0.00000000000000	0.00000000000000	0.00000000000000	0.00000000000000	0.00000000000000	21.08491900000000	0.00000000000000	0.00000000000000	0.00000000000000	0.00000000000000	
17.98326300000000	60.66373900000000	778.78455099999996	56.80485100000000	0.30930200000000	0.00000000000000	0.11064600000000	0.00000000000000	0.00000000000000	0.00000000000000	0.00000000000000	0.00000000000000	0.00000000000000	0.00000000000000	21.20248000000000	0.00000000000000	0.00000000000000	0.00000000000000	0.00000000000000	
17.98493500000000	59.78323400000000	780.20334400000002	56.94504000000000	0.30832800000000	0.00000000000000	0.11062600000000	0.00000000000000	0.00000000000000	0.00000000000000	0.00000000000000	0.00000000000000	0.00000000000000	0.00000000000000	21.31959600000000	0.00000000000000	0.00000000000000	0.00000000000000	0.00000000000000	
17.98660100000000	58.90223500000000	781.46498799999995	57.08220000000000	0.30736700000000	0.00000000000000	0.11060700000000	0.00000000000000	0.00000000000000	0.00000000000000	0.00000000000000	0.00000000000000	0.00000000000000	0.00000000000000	21.43599900000000	0.00000000000000	0.00000000000000	0.00000000000000	0.00000000000000	
17.98827000000000	58.02157400000000	782.56979100000001	57.21598800000000	0.30641800000000	0.00000000000000	0.11058900000000	0.00000000000000	0.00000000000000	0.00000000000000	0.00000000000000	0.00000000000000	0.00000000000000	0.00000000000000	21.55138500000000	0.00000000000000	0.00000000000000	0.00000000000000	0.00000000000000	
17.98993000000000	57.14201100000000	783.51828300000000	57.34600000000000	0.30548000000000	0.00000000000000	0.11057000000000	0.00000000000000	0.00000000000000	0.00000000000000	0.00000000000000	0.00000000000000	0.00000000000000	0.00000000000000	21.66542000000000	0.00000000000000	0.00000000000000	0.00000000000000	0.00000000000000	
17.99160000000000	56.26424200000000	784.31123100000002	57.47177500000000	0.30455000000000	0.00000000000000	0.11055200000000	0.00000000000000	0.00000000000000	0.00000000000000	0.00000000000000	0.00000000000000	0.00000000000000	0.00000000000000	21.77773900000000	0.00000000000000	0.00000000000000	0.00000000000000	0.00000000000000	
17.99326800000000	55.38890100000000	784.94963700000005	57.59279900000000	0.30362700000000	0.00000000000000	0.11053300000000	0.00000000000000	0.00000000000000	0.00000000000000	0.00000000000000	0.00000000000000	0.00000000000000	0.00000000000000	21.88795700000000	0.00000000000000	0.00000000000000	0.00000000000000	0.00000000000000	
17.99493300000000	54.51655800000000	785.43474900000001	57.70851700000000	0.30271100000000	0.00000000000000	0.11051600000000	0.00000000000000	0.00000000000000	0.00000000000000	0.00000000000000	0.00000000000000	0.00000000000000	0.00000000000000	21.99566300000000	0.00000000000000	0.00000000000000	0.00000000000000	0.00000000000000	
17.99660400000000	53.64772800000000	785.76806199999999	57.81832900000000	0.30179800000000	0.00000000000000	0.11049800000000	0.00000000000000	0.00000000000000	0.00000000000000	0.00000000000000	0.00000000000000	0.00000000000000	0.00000000000000	22.10043100000000	0.00000000000000	0.00000000000000	0.00000000000000	0.00000000000000	
17.99826500000000	52.78287200000000	785.95132300000000	57.92160700000000	0.30088700000000	0.00000000000000	0.11048000000000	0.00000000000000	0.00000000000000	0.00000000000000	0.00000000000000	0.00000000000000	0.00000000000000	0.00000000000000	22.20181800000000	0.00000000000000	0.00000000000000	0.00000000000000	0.00000000000000	
17.99993600000000	51.92239700000000	785.98653100000001	58.01769400000000	0.29997700000000	0.00000000000000	0.11046300000000	0.00000000000000	0.00000000000000	0.00000000000000	0.00000000000000	0.00000000000000	0.00000000000000	0.00000000000000	22.29937400000000	0.00000000000000	0.00000000000000	0.00000000000000	0.00000000000000	
18.00159800000000	51.06666600000000	785.87593600000002	58.10591100000000	0.29906500000000	0.00000000000000	0.11044600000000	0.00000000000000	0.00000000000000	0.00000000000000	0.00000000000000	0.00000000000000	0.00000000000000	0.00000000000000	22.39263700000000	0.00000000000000	0.00000000000000	0.00000000000000	0.00000000000000	
18.00326200000000	50.21599700000000	785.62204299999996	58.18556900000000	0.29815100000000	0.00000000000000	0.11042900000000	0.00000000000000	0.00000000000000	0.00000000000000	0.00000000000000	0.00000000000000	0.00000000000000	0.00000000000000	22.48114700000000	0.00000000000000	0.00000000000000	0.00000000000000	0.00000000000000	
18.00493500000000	49.37066800000000	785.22760500000004	58.25597000000000	0.29723300000000	0.00000000000000	0.11041200000000	0.00000000000000	0.00000000000000	0.00000000000000	0.00000000000000	0.00000000000000	0.00000000000000	0.00000000000000	22.56444200000000	0.00000000000000	0.00000000000000	0.00000000000000	0.00000000000000	
18.00660100000000	48.53092000000000	784.69562499999995	58.31641500000000	0.29630700000000	0.00000000000000	0.11039500000000	0.00000000000000	0.00000000000000	0.00000000000000	0.00000000000000	0.00000000000000	0.00000000000000	0.00000000000000	22.64206400000000	0.00000000000000	0.00000000000000	0.00000000000000	0.00000000000000	
18.00826600000000	47.69696500000000	784.02934700000003	58.36621300000000	0.29537500000000	0.00000000000000	0.11037800000000	0.00000000000000	0.00000000000000	0.00000000000000	0.00000000000000	0.00000000000000	0.00000000000000	0.00000000000000	22.71356400000000	0.00000000000000	0.00000000000000	0.00000000000000	0.00000000000000	
18.00993800000000	46.86898300000000	783.23225100000002	58.40468100000000	0.29443200000000	0.00000000000000	0.11036100000000	0.00000000000000	0.00000000000000	0.00000000000000	0.00000000000000	0.00000000000000	0.00000000000000	0.00000000000000	22.77850400000000	0.00000000000000	0.00000000000000	0.00000000000000	0.00000000000000	
18.01159500000000	46.04713200000000	782.30805099999998	58.43116000000000	0.29347900000000	0.00000000000000	0.11034400000000	0.00000000000000	0.00000000000000	0.00000000000000	0.00000000000000	0.00000000000000	0.00000000000000	0.00000000000000	22.83646200000000	0.00000000000000	0.00000000000000	0.00000000000000	0.00000000000000	
18.01326600000000	45.23154800000000	781.26068299999997	58.44501200000000	0.29251300000000	0.00000000000000	0.11032700000000	0.00000000000000	0.00000000000000	0.00000000000000	0.00000000000000	0.00000000000000	0.00000000000000	0.00000000000000	22.88703300000000	0.00000000000000	0.00000000000000	0.00000000000000	0.00000000000000	
18.01494100000000	44.42235100000000	780.09429499999999	58.44562900000000	0.29153300000000	0.00000000000000	0.11031000000000	0.00000000000000	0.00000000000000	0.00000000000000	0.00000000000000	0.00000000000000	0.00000000000000	0.00000000000000	22.92983500000000	0.00000000000000	0.00000000000000	0.00000000000000	0.00000000000000	
18.01660300000000	43.61964600000000	778.81324300000006	58.43244100000000	0.29053800000000	0.00000000000000	0.11029300000000	0.00000000000000	0.00000000000000	0.00000000000000	0.00000000000000	0.00000000000000	0.00000000000000	0.00000000000000	22.96451000000000	0.00000000000000	0.00000000000000	0.00000000000000	0.00000000000000	
18.01826900000000	42.82353100000000	777.42207499999995	58.40491500000000	0.28952600000000	0.00000000000000	0.11027500000000	0.00000000000000	0.00000000000000	0.00000000000000	0.00000000000000	0.00000000000000	0.00000000000000	0.00000000000000	22.99073000000000	0.00000000000000	0.00000000000000	0.00000000000000	0.00000000000000	
18.01993300000000	42.03409500000000	775.92552100000000	58.36256800000000	0.28849700000000	0.00000000000000	0.11025800000000	0.00000000000000	0.00000000000000	0.00000000000000	0.00000000000000	0.00000000000000	0.00000000000000	0.00000000000000	23.00819400000000	0.00000000000000	0.00000000000000	0.00000000000000	0.00000000000000	
18.02160400000000	41.25142200000000	774.32848400000000	58.30496200000000	0.28745000000000	0.00000000000000	0.11024000000000	0.00000000000000	0.00000000000000	0.00000000000000	0.00000000000000	0.00000000000000	0.00000000000000	0.00000000000000	23.01663700000000	0.00000000000000	0.00000000000000	0.00000000000000	0.00000000000000	
18.02326400000000	40.47559800000000	772.63601900000003	58.23171600000000	0.28638300000000	0.00000000000000	0.11022100000000	0.00000000000000	0.00000000000000	0.00000000000000	0.00000000000000	0.00000000000000	0.00000000000000	0.00000000000000	23.01582700000000	0.00000000000000	0.00000000000000	0.00000000000000	0.00000000000000	
18.02493700000000	39.70671000000000	770.85332700000004	58.14250500000000	0.28529600000000	0.00000000000000	0.11020300000000	0.00000000000000	0.00000000000000	0.00000000000000	0.00000000000000	0.00000000000000	0.00000000000000	0.00000000000000	23.00557100000000	0.00000000000000	0.00000000000000	0.00000000000000	0.00000000000000	
18.02659600000000	38.94484900000000	768.98573599999997	58.03706600000000	0.28418800000000	0.00000000000000	0.11018400000000	0.00000000000000	0.00000000000000	0.00000000000000	0.00000000000000	0.00000000000000	0.00000000000000	0.00000000000000	22.98571200000000	0.00000000000000	0.00000000000000	0.00000000000000	0.00000000000000	
18.02826400000000	38.19011100000000	767.03868899999998	57.91519600000000	0.28305900000000	0.00000000000000	0.11016500000000	0.00000000000000	0.00000000000000	0.00000000000000	0.00000000000000	0.00000000000000	0.00000000000000	0.00000000000000	22.95613500000000	0.00000000000000	0.00000000000000	0.00000000000000	0.00000000000000	
